PathFileType	4	(X/Y/Z)	7_2_76_p1_0-183.trc
DataRate	CameraRate	NumFrames	NumMarkers	Units	OrigDataRate	OrigDataStartFrame	OrigNumFrames
55.0	55.0	5	27	m	55.0	23	184
Frame#	Time	RHip			RKnee			RAnkle			RBigToe			RSmallToe			RHeel			LHip			LKnee			LAnkle			LBigToe			LSmallToe			LHeel			Neck			Head			Nose			RShoulder			RElbow			RWrist			RThumb			RIndex			RPinky			LShoulder			LElbow			LWrist			LThumb			LIndex			LPinky			
		X1	Y1	Z1	X2	Y2	Z2	X3	Y3	Z3	X4	Y4	Z4	X5	Y5	Z5	X6	Y6	Z6	X7	Y7	Z7	X8	Y8	Z8	X9	Y9	Z9	X10	Y10	Z10	X11	Y11	Z11	X12	Y12	Z12	X13	Y13	Z13	X14	Y14	Z14	X15	Y15	Z15	X16	Y16	Z16	X17	Y17	Z17	X18	Y18	Z18	X19	Y19	Z19	X20	Y20	Z20	X21	Y21	Z21	X22	Y22	Z22	X23	Y23	Z23	X24	Y24	Z24	X25	Y25	Z25	X26	Y26	Z26	X27	Y27	Z27	
23	0.41818181818181815	0.28635512244252714	0.2837300440082492	1.1819482911817971	0.27432065676530565	0.26980690189006334	1.5986263759985024	0.26051159312794603	0.26261384412978334	2.025741393349213	0.2607038137117879	0.09562473552661228	2.0014567835949935	0.31269813693241666	0.11379580948483597	2.0004408994442895	0.2502016097909322	0.31763958026530703	2.1002606064630527	0.061800975676730506	0.2943557600660077	1.2048054145430036	0.08097009767177683	0.27644719924623434	1.6114148151083059	0.10083303792342685	0.24197370635107193	2.0022611149649667	0.11153185080583244	0.09436998726111118	2.0077320508626015	0.056408122557184574	0.11492376956401588	1.9867173926262967	0.11356670874723088	0.29399842401388615	2.0724209288611557	0.169276117225558	0.364639193362848	0.6417480688440541	0.1738268719025518	0.3209280185025978	0.3868444034608861	0.161889022982657	0.24758578260731168	0.4994654811463344	0.32891921724231193	0.3396419942081531	0.7126983012508064	0.36531686186896906	0.2485479979658307	0.9379782033486013	0.2157628945304838	0.1245288759643499	1.0756057774314467	0.13452975511732324	0.08869108779951604	1.1261916801480576	0.12670162407305363	0.09031508262446973	1.1680976698319663	0.15164937321552402	0.13439778984393275	1.200596559510512	0.01075627298452078	0.3321594111920022	0.6930107819598861	-0.03825009892371083	0.3004049724455564	0.9342761683883192	0.10757313719353045	0.12817791000193213	1.0415084925411648	0.19612078634175412	0.0729646629765999	1.0856672542054702	0.2022120323555895	0.08187796201149494	1.144001034243626	0.15726149242854962	0.12096497051124867	1.165122959729658
24	0.43636363636363634	0.2864163243384614	0.28360284908694916	1.1734457707715151	0.2750526648062131	0.2698188272838501	1.5942377485021921	0.26049919439681346	0.26240257982887016	2.02557230386962	0.26418337158359273	0.08284158131662471	1.9911940630201197	0.31639789059826307	0.10040618689671783	1.989480793747935	0.24618612278947563	0.30564025910029335	2.0908300628462566	0.06202844734094812	0.29461889939983177	1.2048329590631113	0.08203903416438602	0.2766444995082883	1.6076153923127388	0.10430131446485744	0.2530324954412549	2.0103539724624553	0.11211216133986476	0.09762607258789474	2.0091952601439416	0.05167187847467278	0.12688062667356553	1.9962834763027149	0.11473301244535457	0.2939496501601819	2.0674365449155765	0.16932435836447637	0.3644270348831534	0.642235696061191	0.1769464115276878	0.3309315666159882	0.3850069404138259	0.16192636374451003	0.247603355047001	0.49940800647340683	0.33234535776170643	0.32738629188372703	0.7089885616887849	0.36871927424577117	0.2360750141340883	0.9333709933601075	0.21608444919226402	0.1231162716035451	1.079258372177181	0.1301439254298209	0.07817284194978656	1.122994668453902	0.12250506087289321	0.08066111204844414	1.1600807206551749	0.15150877447857336	0.13393077480000448	1.2008462578792465	0.010516311249523552	0.3315760466416356	0.6967845451510766	-0.038081191819521035	0.30058021648272015	0.9345988825236483	0.10763252346589923	0.1282240188948682	1.041594807910658	0.19602357356175376	0.07300146085626731	1.0817568304355567	0.20592958079835064	0.06979932899584287	1.1386749134598113	0.15434525781729758	0.11239810392373475	1.1613702799025039
25	0.45454545454545453	0.2870917026502448	0.2839179825748702	1.1779479008997025	0.2752781368518905	0.2701313386740227	1.5944976861785152	0.2605359111286779	0.26249990548416996	2.025695163239145	0.2606416704153971	0.072380038187748	1.9826652973885395	0.3163041159254854	0.10030666975740876	1.9888467963718053	0.2463609032268099	0.3057916467243968	2.091008620415957	0.062084616076707885	0.29456080476337676	1.2045129176565519	0.08209401836777583	0.27681867481048544	1.607559452978779	0.1004429432295738	0.24355605475773986	1.9990172050634045	0.10751279405356466	0.09540286294868291	2.0078087713277126	0.05171480284364238	0.1268770266731515	1.9961128658309204	0.11364355409897618	0.2936957112612822	2.072314490395565	0.16931959705960947	0.364399623598224	0.6422269215483615	0.17696221335526205	0.3310565664532862	0.38516674657970934	0.16189889782071135	0.24759810194698403	0.4994095932040868	0.33235023027916	0.3273760952733261	0.7090209841032219	0.3724865556894906	0.24596682169466597	0.9368140329364318	0.21611763130960823	0.12301045089100554	1.0792165939794882	0.13028097779905834	0.07824607343138358	1.12290530982859	0.12330808689212076	0.08104495391310451	1.1643629093489654	0.15170077132014093	0.1342059161541243	1.2008883350395676	0.010501943709837534	0.33162791865084257	0.6967762201362055	-0.03811885020930699	0.3004499571252745	0.9345400267791802	0.10763107543994534	0.12810232112993328	1.0415838689700674	0.19852602448678328	0.08196731375633838	1.0890649740305811	0.2021806544549289	0.08068684943548879	1.144194303668989	0.15420169417654045	0.11206667394099644	1.1613565757747848
26	0.4727272727272727	0.2871241199051365	0.28393937957639603	1.1778871747328021	0.27512405701690434	0.2699446209629328	1.5944184689515075	0.2604174473998087	0.26233784164140855	2.025598114576547	0.25678659659787006	0.084527470560227	1.9928211988214253	0.31268594116170007	0.09056610255590448	1.981684064163115	0.2463116635909672	0.30584663741733864	2.091307714652183	0.06214273293244128	0.2945760693235915	1.2044888267432234	0.08208776104873991	0.27685491001143525	1.608170314473772	0.10044439364235015	0.24356867180789782	1.9990581546340402	0.10729841720663061	0.09518716924532791	2.0076486128710895	0.05166072268675553	0.12689770216618876	1.9961295476059135	0.11363335259049853	0.29376728643948224	2.0723091945018965	0.16931994809808235	0.364424189734759	0.6422554080383991	0.17695080744548228	0.3310453298675589	0.38519316648796276	0.16187388992571683	0.24756801312511056	0.4993979813084598	0.332317100106649	0.32739642089718457	0.7090499429712519	0.3724912517801478	0.24594289930936664	0.9367933293519541	0.21610432816154837	0.1229701709857909	1.0792224630214626	0.13009901717222963	0.07810769429383091	1.1232042206179351	0.12313299886055314	0.08087843265479737	1.164667030568098	0.15233586160276727	0.1345305832678187	1.2055431537387145	0.010533533364705297	0.3315902720328616	0.6966931159916113	-0.0332326312656004	0.28855831968969003	0.9301434367567103	0.10763214799737857	0.12813701016435183	1.041587335218126	0.19564791153975125	0.07326573383594684	1.0849409328014312	0.20585963063773596	0.06983047049774141	1.1384957902396822	0.15428787228850166	0.11217230793467524	1.1607843162125666
27	0.4909090909090909	0.28646102458750655	0.2836674414771829	1.173430846525898	0.2750771926837307	0.26994628612636495	1.5944800634547416	0.2604598198937141	0.26224532250922367	2.025491086904339	0.26404053778789305	0.08276784476264788	1.9911850939174454	0.31636265350220794	0.10044226000609871	1.9893576456223552	0.24626368606200602	0.30572737178417486	2.0909823796885405	0.06216408911586901	0.29456562357803157	1.2044667224068322	0.08203573756564975	0.2767992607234167	1.6079899452541577	0.10043485723375363	0.24359468414131671	1.9989918374933735	0.10394427210003893	0.0835232623799464	1.9930409140364735	0.05170434380697515	0.12681617585725496	1.9960108290371479	0.11357252818824694	0.2937611633560443	2.072288939171582	0.1693050803313404	0.3644552990943535	0.642171144498155	0.17691819799223416	0.33096028143487755	0.38509338162412493	0.16189275811848672	0.2475610812985492	0.49940399202937535	0.3323157822141525	0.32739482858514624	0.7090815216574484	0.37247455318136147	0.24600097769917828	0.9369229464921757	0.21614558329535452	0.12292289706052908	1.0790650360806568	0.13021273808476302	0.07825677901830383	1.1231019566919018	0.11821022481371339	0.09137582076037894	1.1653823045837217	0.15246536896006696	0.1343500569438909	1.2051503204593372	0.010537132668135543	0.33160589979976396	0.6967656830579125	-0.033118507961197106	0.28851169985327413	0.9301673746230145	0.10770422710740157	0.1280453694845905	1.041526817076812	0.19573150859398752	0.07297337440030142	1.085268257145709	0.20194265906433284	0.08075861545253576	1.1438189876615128	0.15428614149862915	0.11215832569867805	1.1604652876435058
